<svg xmlns="http://www.w3.org/2000/svg" xmlns:xlink="http://www.w3.org/1999/xlink" width="100%" height="100%" version="1.1" viewBox="0 0 240 240" xml:space="preserve" style="fill-rule:evenodd;clip-rule:evenodd;stroke-linecap:square;stroke-miterlimit:1.5"><g><text x="150.184" y="101.604" transform="matrix(1,0,0,1,-104.956,-26.3856)" style="font-family:'ArialMT','Arial',sans-serif;font-size:50px">1</text></g><g><text x="150.184" y="101.604" transform="matrix(1,0,0,1,-104.956,36.0508)" style="font-family:'ArialMT','Arial',sans-serif;font-size:50px">0</text></g><g><text x="150.184" y="101.604" transform="matrix(1,0,0,1,-104.956,98.4873)" style="font-family:'ArialMT','Arial',sans-serif;font-size:50px">0</text></g><g><text x="150.184" y="101.604" transform="matrix(1,0,0,1,-45.5814,-26.3856)" style="font-family:'ArialMT','Arial',sans-serif;font-size:50px">0</text></g><g><text x="150.184" y="101.604" transform="matrix(1,0,0,1,-45.5814,36.0508)" style="font-family:'ArialMT','Arial',sans-serif;font-size:50px">1</text></g><g><text x="150.184" y="101.604" transform="matrix(1,0,0,1,-45.5814,98.4873)" style="font-family:'ArialMT','Arial',sans-serif;font-size:50px">0</text></g><g><text x="150.184" y="101.604" transform="matrix(1,0,0,1,13.7936,-26.3856)" style="font-family:'ArialMT','Arial',sans-serif;font-size:50px">tx</text></g><g><text x="150.184" y="101.604" transform="matrix(1,0,0,1,13.7936,36.0508)" style="font-family:'ArialMT','Arial',sans-serif;font-size:50px">ty</text></g><g><text x="155.726" y="101.604" transform="matrix(1,0,0,1,7.1894,98.4873)" style="font-family:'ArialMT','Arial',sans-serif;font-size:50px">1</text></g><g><path d="M134.172,41.448L107.943,41.448L107.943,304.649L134.172,304.649" transform="matrix(0.800333,0,0,0.78589,-75.1223,-15.997)" style="fill:none;stroke:#000;stroke-width:5.25px"/></g><g><path d="M134.172,41.448L107.943,41.448L107.943,304.649L134.172,304.649" transform="matrix(-0.800333,0,0,0.78589,315.122,-15.997)" style="fill:none;stroke:#000;stroke-width:5.25px"/></g></svg>