<svg xmlns="http://www.w3.org/2000/svg" xmlns:xlink="http://www.w3.org/1999/xlink" width="100%" height="100%" version="1.1" viewBox="0 0 340 240" xml:space="preserve" style="fill-rule:evenodd;clip-rule:evenodd;stroke-linecap:round;stroke-linejoin:round;stroke-miterlimit:1.5"><g><path d="M231.907,222.226L324.253,222.226" transform="matrix(2.28002,0,0,1,-494.548,-173.833)" style="fill:none;stroke:#000;stroke-width:.28px;stroke-dasharray:2.84,2.84,0,0"/></g><g><path d="M108.197,357.646L320,357.646" transform="matrix(1,0,0,1,-75.2454,-173.833)" style="fill:none;stroke:#000;stroke-width:1px"/></g><g><path d="M214.834,244.281L216.534,242.581L265.181,291.227L259.375,297.033L214.834,252.492L214.834,292.098L247.837,353.772L240.598,357.646L210.848,302.052L181.098,357.646L173.858,353.772L206.623,292.545L206.623,252.492L162.082,297.033L156.276,291.227L204.923,242.581L206.623,244.281L206.623,242.581L214.834,242.581L214.834,244.281Z" transform="matrix(1,0,0,1,-75.2454,-173.833)" style="fill:#ff8f8f"/></g><g transform="matrix(1,0,0,1,-75.2454,-173.833)"><ellipse cx="210.728" cy="221.926" rx="16.755" ry="18.074" style="fill:#ff8f8f"/></g><g transform="matrix(0.272789,-0.272789,0.272789,0.272789,-19.5636,143.735)"><rect width="15.049" height="15.049" x="203.204" y="350.122" style="fill:#b3ff76;stroke:#000;stroke-width:2.59px"/></g><g transform="matrix(0.272789,-0.272789,0.272789,0.272789,-19.5636,8.01521)"><rect width="15.049" height="15.049" x="203.204" y="350.122" style="fill:#b3ff76;stroke:#000;stroke-width:2.59px"/></g><g><path d="M210.728,362.933L214.098,373.513L207.358,373.513L210.728,362.933Z" transform="matrix(0.5,0.866025,-0.866025,0.5,340.502,-313.28)"/><path d="M210.728,373.513L210.728,392.56" transform="matrix(0.5,0.866025,-0.866025,0.5,340.502,-313.28)" style="fill:none;stroke:#000;stroke-width:1px"/></g><g><path d="M210.728,362.933L214.098,373.513L207.358,373.513L210.728,362.933Z" transform="matrix(0.707107,-0.707107,0.707107,0.707107,-267.877,78.749)"/><path d="M210.728,373.513L210.728,392.56" transform="matrix(0.707107,-0.707107,0.707107,0.707107,-267.877,78.749)" style="fill:none;stroke:#000;stroke-width:1px"/></g><g><g><path d="M210.728,362.933L214.098,373.513L207.358,373.513L210.728,362.933Z" transform="matrix(1,-2.33487e-16,2.33487e-16,1,-0.467308,-319.831) matrix(1,0,0,1,5.68434e-14,5.29036)"/></g><g><path d="M210.728,373.513L210.728,392.56" transform="matrix(1,-2.33487e-16,2.33487e-16,1,-0.467308,-319.831) matrix(1,0,0,6.8321,1.42109e-14,-2178.37)" style="fill:none;stroke:#000;stroke-width:.1px;stroke-dasharray:1.02,1.02,0,0"/></g></g><g><text x="244.762" y="384.189" transform="matrix(1,0,0,1,-81.1959,-173.833)" style="font-family:'ArialMT','Arial',sans-serif;font-size:12px">origin</text></g><g><text x="298.726" y="234.72" transform="matrix(1,0,0,1,-79.6361,-155.675)" style="font-family:'ArialMT','Arial',sans-serif;font-size:12px">both head vertices</text><text x="298.726" y="247.112" transform="matrix(1,0,0,1,-79.6361,-155.675)" style="font-family:'ArialMT','Arial',sans-serif;font-size:12px">and head bone are</text><text x="298.726" y="259.505" transform="matrix(1,0,0,1,-79.6361,-155.675)" style="font-family:'ArialMT','Arial',sans-serif;font-size:12px">2.0 units above the</text><text x="298.726" y="271.898" transform="matrix(1,0,0,1,-79.6361,-155.675)" style="font-family:'ArialMT','Arial',sans-serif;font-size:12px">origin</text></g><g><text x="121.482" y="239.369" transform="matrix(1,0,0,1,-77.1282,-169.648)" style="font-family:'ArialMT','Arial',sans-serif;font-size:12px">head bone</text></g></svg>