<svg xmlns="http://www.w3.org/2000/svg" xmlns:xlink="http://www.w3.org/1999/xlink" width="100%" height="100%" version="1.1" viewBox="0 0 500 500" xml:space="preserve" style="fill-rule:evenodd;clip-rule:evenodd;stroke-linecap:round;stroke-linejoin:round;stroke-miterlimit:1.5"><path d="M250,30L355,58.135L431.865,135L460,240L431.865,345L355,421.865L250,450L145,421.865L68.135,345L40,240L68.135,135L145,58.135L250,30Z" style="fill:#ebebeb"/><path d="M250,240L460,240L431.865,345L250,240Z" style="fill:#04d4bf;stroke:#000;stroke-width:1px"/><g><text x="476.345" y="240.606" transform="matrix(1,0,0,1,-10.8818,14.3681)" style="font-family:'ArialMT','Arial',sans-serif;font-size:41.667px">0</text></g><g><text x="476.345" y="240.606" transform="matrix(1,0,0,1,-34.9897,121.95)" style="font-family:'ArialMT','Arial',sans-serif;font-size:41.667px">1</text></g><g transform="matrix(1.41413,0,0,1.41413,-190.499,-99.3909)"><circle cx="460" cy="240" r="2.829"/></g><g transform="matrix(1.41413,0,0,1.41413,-218.634,5.60914)"><circle cx="460" cy="240" r="2.829"/></g><g transform="matrix(1.41413,0,0,1.41413,-400.499,-99.3909)"><circle cx="460" cy="240" r="2.829"/></g><g><text x="476.345" y="240.606" transform="matrix(1,0,0,1,-267.603,-4.60585)" style="font-family:'ArialMT','Arial',sans-serif;font-size:41.667px">2</text></g><g><path d="M250,240L460,240L431.865,345L250,240Z" transform="matrix(0.866025,0.5,-0.5,0.866025,153.494,-92.8461)" style="fill:none;stroke:#000;stroke-width:1px"/></g><g><path d="M250,240L460,240L431.865,345L250,240Z" transform="matrix(0.5,0.866025,-0.866025,0.5,332.846,-96.5064)" style="fill:none;stroke:#000;stroke-width:1px"/></g><g><path d="M250,240L460,240L431.865,345L250,240Z" transform="matrix(2.77556e-16,1,-1,2.77556e-16,490,-10)" style="fill:none;stroke:#000;stroke-width:1px"/></g><g><path d="M250,240L460,240L431.865,345L250,240Z" transform="matrix(-0.5,0.866025,-0.866025,-0.5,582.846,143.494)" style="fill:none;stroke:#000;stroke-width:1px"/></g><g><path d="M250,240L460,240L431.865,345L250,240Z" transform="matrix(-0.866025,0.5,-0.5,-0.866025,586.506,322.846)" style="fill:none;stroke:#000;stroke-width:1px"/></g><g><path d="M250,240L460,240L431.865,345L250,240Z" transform="matrix(-1,5.55112e-16,-5.55112e-16,-1,500,480)" style="fill:none;stroke:#000;stroke-width:1px"/></g><g><path d="M250,240L460,240L431.865,345L250,240Z" transform="matrix(-0.866025,-0.5,0.5,-0.866025,346.506,572.846)" style="fill:none;stroke:#000;stroke-width:1px"/></g><g><path d="M250,240L460,240L431.865,345L250,240Z" transform="matrix(-0.5,-0.866025,0.866025,-0.5,167.154,576.506)" style="fill:none;stroke:#000;stroke-width:1px"/></g><g><path d="M250,240L460,240L431.865,345L250,240Z" transform="matrix(-8.32667e-16,-1,1,-8.32667e-16,10,490)" style="fill:none;stroke:#000;stroke-width:1px"/></g><g><path d="M250,240L460,240L431.865,345L250,240Z" transform="matrix(0.5,-0.866025,0.866025,0.5,-82.8461,336.506)" style="fill:none;stroke:#000;stroke-width:1px"/></g><g><path d="M250,240L460,240L431.865,345L250,240Z" transform="matrix(0.866025,-0.5,0.5,0.866025,-86.5064,157.154)" style="fill:none;stroke:#000;stroke-width:1px"/></g></svg>