<svg xmlns="http://www.w3.org/2000/svg" xmlns:xlink="http://www.w3.org/1999/xlink" width="100%" height="100%" version="1.1" viewBox="0 0 500 500" xml:space="preserve" style="fill-rule:evenodd;clip-rule:evenodd;stroke-linecap:round;stroke-linejoin:round;stroke-miterlimit:1.5"><g><path d="M320.18,156.154L143.561,130.681L143.561,354.814L320.18,391.547L320.18,156.154Z" transform="matrix(1,0,0,1,86.2198,-67.9602)" style="fill:none;stroke:#000;stroke-width:1px"/></g><g><path d="M69.82,208.218L208.602,106.592" transform="matrix(1,0,0,1,21.179,-43.8717)" style="fill:none;stroke:#000;stroke-width:1px"/></g><g><path d="M280.195,208.218L419.219,96.606" transform="matrix(1,0,0,1,-12.8192,-8.41256)" style="fill:none;stroke:#000;stroke-width:1px"/></g><g><path d="M280.195,458.862L302.628,436.773L419.219,332.889" transform="matrix(1,0,0,1,-12.8192,-9.30311)" style="fill:none;stroke:#000;stroke-width:1px"/></g><g><path d="M69.82,439.666L208.602,330.725" transform="matrix(1,0,0,1,21.179,-43.8717)" style="fill:none;stroke:#000;stroke-width:1px"/></g><g><text x="57.318" y="454.45" transform="matrix(1,0,0,1,-7.03923,-23.0436)" style="font-family:'ArialMT','Arial',sans-serif;font-size:50px">0</text></g><g><text x="57.318" y="454.45" transform="matrix(1,0,0,1,222.707,32.1174)" style="font-family:'ArialMT','Arial',sans-serif;font-size:50px">1</text></g><g><text x="57.318" y="454.45" transform="matrix(1,0,0,1,-6.79509,-286.708)" style="font-family:'ArialMT','Arial',sans-serif;font-size:50px">2</text></g><g><text x="57.318" y="454.45" transform="matrix(1,0,0,1,190.583,-269.056)" style="font-family:'ArialMT','Arial',sans-serif;font-size:50px">3</text></g><g><text x="57.318" y="454.45" transform="matrix(1,0,0,1,135.636,-167.597)" style="font-family:'ArialMT','Arial',sans-serif;font-size:50px">4</text></g><g><g><path d="M267.376,164.346L90.999,164.346L90.999,402.791L267.376,388.117L267.376,164.346Z" transform="matrix(0.788217,-0.626703,0,1.05194,195.649,82.8768)" style="fill:#ff9e02;stroke:#000;stroke-width:1.32px;stroke-dasharray:1.32,1.32,1.32,1.32"/><g><text x="177.248" y="280.551" transform="matrix(0.788217,-0.626703,0,1.05194,195.649,82.8768) matrix(4.40369,0,0,4.7656,-671.838,-971.559)" style="font-family:'Arial-BoldMT','Arial',sans-serif;font-weight:700;font-size:50px;stroke:#000;stroke-width:.28px;stroke-linecap:butt;stroke-miterlimit:1.41421;stroke-dasharray:.28,.28,.28,.28">F</text></g></g></g><g><path d="M267.376,160.348L90.999,167.331L90.999,385.549L267.376,396.839L267.376,160.348Z" transform="matrix(1,0.236932,4.37512e-19,1.06063,9.9817e-11,-34.6893)" style="fill:#ff9e02"/></g><g><path d="M282.782,166.14L106.405,130.681L106.405,362.129L282.782,415.893L282.782,166.14Z" transform="matrix(1,0,0,1,-15.4061,33.6656)" style="fill:none;stroke:#000;stroke-width:1px"/></g><g transform="matrix(1,0,0,1,-139.162,105.803)"><circle cx="230.16" cy="58.543" r="6.114"/></g><g transform="matrix(1,0,0,1,-139.162,337.251)"><circle cx="230.16" cy="58.543" r="6.114"/></g><g transform="matrix(1,0,0,1,37.2155,391.015)"><circle cx="230.16" cy="58.543" r="6.114"/></g><g transform="matrix(1,0,0,1,176.041,265.043)"><circle cx="230.16" cy="58.543" r="6.114"/></g><g transform="matrix(1,0,0,1,37.2155,140.771)"><circle cx="230.16" cy="58.543" r="6.114"/></g><g transform="matrix(1,0,0,1,176.041,29.4054)"><circle cx="230.16" cy="58.543" r="6.114"/></g><g transform="matrix(1,0,0,1,-0.379413,3.36831)"><circle cx="230.16" cy="58.543" r="6.114"/></g><g><text x="177.248" y="280.551" transform="matrix(4.40369,1.04337,0,4.7656,-671.838,-1141.42)" style="font-family:'Arial-BoldMT','Arial',sans-serif;font-weight:700;font-size:50px">F</text></g><g><text x="177.827" y="210.076" transform="matrix(0.394787,0.0871658,-0.0073768,0.396006,142.354,109.821)" style="font-family:'Arial-BoldMT','Arial',sans-serif;font-weight:700;font-size:50px;fill:red">uv1,1</text></g><g><text x="177.827" y="210.076" transform="matrix(0.307168,-0.237669,-0.00573959,0.402076,219.523,173.807)" style="font-family:'Arial-BoldMT','Arial',sans-serif;font-weight:700;font-size:50px;fill:red">uv0,1</text></g></svg>