<svg xmlns="http://www.w3.org/2000/svg" xmlns:xlink="http://www.w3.org/1999/xlink" width="100%" height="100%" version="1.1" viewBox="0 0 480 320" xml:space="preserve" style="fill-rule:evenodd;clip-rule:evenodd;stroke-linecap:round;stroke-linejoin:round;stroke-miterlimit:1.5"><g><path d="M34.124,207.923L441.359,109.568L441.359,310.406L34.124,212.05L34.124,207.923Z" transform="matrix(0.758526,0,0,0.790947,69.2197,24.4851)" style="fill:#26b9d9"/></g><g><path d="M33,186L36,186L36,189L33,189L33,193L30,193L30,180L38,180L38,183L33,183L33,186Z" transform="matrix(2.75169,0,0,2.75169,115.436,-322.417)" style="fill:#a633ff"/></g><g><g transform="matrix(0.362389,0,0,0.362389,62.4431,132.608) matrix(0.648649,0,0,1,29.3833,93)"><rect width="37" height="21" x="21" y="57"/></g><g><path d="M104.5,57L114,78L95,78L104.5,57Z" transform="matrix(0.362389,0,0,0.362389,62.4431,132.608) matrix(6.12323e-17,-1,1,6.12323e-17,-1.24628,265)"/></g></g><g><g><g><path d="M77.502,248L83,263L72.005,263L77.502,248Z" transform="matrix(1,0,0,1,-25.9976,-10) matrix(6.12323e-17,1,-1,6.12323e-17,281.102,163.749) matrix(6.12323e-17,-1,1,6.12323e-17,-201.749,237.502)"/></g><g><path d="M83,343L199,343" transform="matrix(1,0,0,1,-25.9976,-10) matrix(6.12323e-17,1,-1,6.12323e-17,281.102,163.749) matrix(0.327586,0,-3.08149e-33,1,21.0616,-183)" style="fill:none;stroke:#000;stroke-width:1.34px;stroke-dasharray:6.72,6.72,0,0"/></g></g><g><g><path d="M77.502,248L83,263L72.005,263L77.502,248Z" transform="matrix(1,0,0,1,-25.9976,-10) matrix(6.12323e-17,1,-1,6.12323e-17,589,-258.251) matrix(6.12323e-17,1,-1,6.12323e-17,625.251,81.4975)"/></g><g><path d="M83,343L199,343" transform="matrix(1,0,0,1,-25.9976,-10) matrix(6.12323e-17,1,-1,6.12323e-17,589,-258.251) matrix(0.310345,0,0,1,312.493,-184)" style="fill:none;stroke:#000;stroke-width:1.35px;stroke-dasharray:6.75,6.75,0,0"/></g></g><g><g><path d="M77.502,248L83,263L72.005,263L77.502,248Z" transform="matrix(1,0,0,1,-25.9976,-10) matrix(1,0,0,1,69.7464,25.4975) matrix(5.00942e-17,-0.8181,0.733333,4.49037e-17,-135.615,223.405)"/></g><g><path d="M83,343L199,343" transform="matrix(1,0,0,1,-25.9976,-10) matrix(1,0,0,1,69.7464,25.4975) matrix(0.327586,0,-3.08149e-33,1,21.0616,-183)" style="fill:none;stroke:#000;stroke-width:1.34px;stroke-dasharray:6.72,6.72,0,0"/></g></g><g><g><path d="M77.502,248L83,263L72.005,263L77.502,248Z" transform="matrix(1,0,0,1,-25.9976,-10) matrix(1,0,0,1,-152.254,26.4975) matrix(5.00942e-17,0.8181,-0.733333,4.49037e-17,557.618,95.5952)"/></g><g><path d="M83,343L199,343" transform="matrix(1,0,0,1,-25.9976,-10) matrix(1,0,0,1,-152.254,26.4975) matrix(0.310345,0,0,1,312.493,-184)" style="fill:none;stroke:#000;stroke-width:1.35px;stroke-dasharray:6.75,6.75,0,0"/></g></g></g><g><text x="243.362" y="41.478" transform="matrix(0.246128,0,0,0.235455,305.162,50.3156)" style="font-family:'Arial-BoldMT','Arial',sans-serif;font-weight:700;font-size:118.664px">-zFar</text></g><g><text x="266.365" y="41.478" transform="matrix(0.0964126,0,0,0.0922315,105.677,175.041)" style="font-family:'Arial-BoldMT','Arial',sans-serif;font-weight:700;font-size:118.664px">-360</text></g><g><text x="203.759" y="41.478" transform="matrix(0.246128,0,0,0.235455,-1.79095,260.234)" style="font-family:'Arial-BoldMT','Arial',sans-serif;font-weight:700;font-size:118.664px">-zNear</text></g></svg>