<svg xmlns="http://www.w3.org/2000/svg" xmlns:xlink="http://www.w3.org/1999/xlink" width="100%" height="100%" version="1.1" viewBox="0 0 500 500" xml:space="preserve" style="fill-rule:evenodd;clip-rule:evenodd;stroke-linecap:round;stroke-linejoin:round;stroke-miterlimit:1.5"><path d="M250,90L400,181.325" style="fill:none;stroke:#000;stroke-width:6.25px"/><path d="M250,420.282L400,320" style="fill:none;stroke:#000;stroke-width:6.25px"/><path d="M100,180L100,321.22" style="fill:none;stroke:#000;stroke-width:6.25px"/><g><g><g transform="matrix(1,0,0,1,150,-10) matrix(2.60633,0,0,2.60633,-160.143,-159.849)"><circle cx="99.812" cy="99.699" r="7.674" style="fill:#373737"/></g><g><text x="81.827" y="99.205" transform="matrix(1,0,0,1,150,-10) matrix(0.713569,0,0,0.574559,28.7166,53.2827)" style="font-family:'Arial-BoldMT','Arial',sans-serif;font-weight:700;font-size:50px;fill:#feff00">A</text></g></g><g><g transform="matrix(1,0,0,1,300,80) matrix(2.60633,0,0,2.60633,-160.143,-159.849)"><circle cx="99.812" cy="99.699" r="7.674" style="fill:#373737"/></g><g><text x="81.827" y="99.205" transform="matrix(1,0,0,1,300,80) matrix(0.713569,0,0,0.574559,28.7166,53.2827)" style="font-family:'Arial-BoldMT','Arial',sans-serif;font-weight:700;font-size:50px;fill:#feff00">B</text></g></g><g><g transform="matrix(1,0,0,1,300,220) matrix(2.60633,0,0,2.60633,-160.143,-159.849)"><circle cx="99.812" cy="99.699" r="7.674" style="fill:#373737"/></g><g><text x="81.827" y="99.205" transform="matrix(1,0,0,1,300,220) matrix(0.713569,0,0,0.574559,28.7166,53.2827)" style="font-family:'Arial-BoldMT','Arial',sans-serif;font-weight:700;font-size:50px;fill:#feff00">C</text></g></g><g><g transform="matrix(1,0,0,1,150,320.282) matrix(2.60633,0,0,2.60633,-160.143,-159.849)"><circle cx="99.812" cy="99.699" r="7.674" style="fill:#373737"/></g><g><text x="81.827" y="99.205" transform="matrix(1,0,0,1,150,320.282) matrix(0.713569,0,0,0.574559,28.7166,53.2827)" style="font-family:'Arial-BoldMT','Arial',sans-serif;font-weight:700;font-size:50px;fill:#feff00">D</text></g></g><g><g transform="matrix(1,0,0,1,-1.42109e-14,220) matrix(2.60633,0,0,2.60633,-160.143,-159.849)"><circle cx="99.812" cy="99.699" r="7.674" style="fill:#373737"/></g><g><text x="83.207" y="99.205" transform="matrix(1,0,0,1,-1.42109e-14,220) matrix(0.713569,0,0,0.574559,28.7166,53.2827)" style="font-family:'Arial-BoldMT','Arial',sans-serif;font-weight:700;font-size:50px;fill:#feff00">E</text></g></g><g><g transform="matrix(1,0,0,1,-5.68434e-14,80) matrix(2.60633,0,0,2.60633,-160.143,-159.849)"><circle cx="99.812" cy="99.699" r="7.674" style="fill:#373737"/></g><g><text x="84.611" y="99.205" transform="matrix(1,0,0,1,-5.68434e-14,80) matrix(0.713569,0,0,0.574559,28.7166,53.2827)" style="font-family:'Arial-BoldMT','Arial',sans-serif;font-weight:700;font-size:50px;fill:#feff00">F</text></g></g></g></svg>