<svg xmlns="http://www.w3.org/2000/svg" xmlns:xlink="http://www.w3.org/1999/xlink" width="100%" height="100%" version="1.1" viewBox="0 0 400 300" xml:space="preserve" style="fill-rule:evenodd;clip-rule:evenodd;stroke-linejoin:round;stroke-miterlimit:2"><g><path d="M100.477,100L100.477,300L250,100L100.477,100Z" transform="matrix(1,0,0,1,-50,-50)" style="fill:#ff6565"/></g><g><path d="M249.919,300L400,100L400.477,300L249.919,300Z" transform="matrix(1,0,0,1,-50,-50)" style="fill:#d60000"/></g><g><g><g transform="matrix(1,0,0,1,-50,-50) matrix(1,0,0,1,0.476915,-5.68434e-14) matrix(2.60633,0,0,2.60633,-160.143,-159.849)"><circle cx="99.812" cy="99.699" r="7.674" style="fill:#373737"/></g><g><text x="81.827" y="99.205" transform="matrix(1,0,0,1,-50,-50) matrix(1,0,0,1,0.476915,-5.68434e-14) matrix(0.713569,0,0,0.574559,28.7166,53.2827)" style="font-family:'Arial-BoldMT','Arial',sans-serif;font-weight:700;font-size:50px;fill:#feff00">A</text></g></g><g><g transform="matrix(1,0,0,1,-50,-50) matrix(1,0,0,1,0.476915,200) matrix(2.60633,0,0,2.60633,-160.143,-159.849)"><circle cx="99.812" cy="99.699" r="7.674" style="fill:#373737"/></g><g><text x="81.827" y="99.205" transform="matrix(1,0,0,1,-50,-50) matrix(1,0,0,1,0.476915,200) matrix(0.713569,0,0,0.574559,28.7166,53.2827)" style="font-family:'Arial-BoldMT','Arial',sans-serif;font-weight:700;font-size:50px;fill:#feff00">B</text></g></g><g><g transform="matrix(1,0,0,1,-50,-50) matrix(1,0,0,1,150,0) matrix(2.60633,0,0,2.60633,-160.143,-159.849)"><circle cx="99.812" cy="99.699" r="7.674" style="fill:#373737"/></g><g><text x="81.827" y="99.205" transform="matrix(1,0,0,1,-50,-50) matrix(1,0,0,1,150,0) matrix(0.713569,0,0,0.574559,28.7166,53.2827)" style="font-family:'Arial-BoldMT','Arial',sans-serif;font-weight:700;font-size:50px;fill:#feff00">C</text></g></g><g><g transform="matrix(1,0,0,1,-50,-50) matrix(1,0,0,1,150,200) matrix(2.60633,0,0,2.60633,-160.143,-159.849)"><circle cx="99.812" cy="99.699" r="7.674" style="fill:#373737"/></g><g><text x="81.827" y="99.205" transform="matrix(1,0,0,1,-50,-50) matrix(1,0,0,1,150,200) matrix(0.713569,0,0,0.574559,28.7166,53.2827)" style="font-family:'Arial-BoldMT','Arial',sans-serif;font-weight:700;font-size:50px;fill:#feff00">D</text></g></g><g><g transform="matrix(1,0,0,1,-50,-50) matrix(1,0,0,1,300,-5.68434e-14) matrix(2.60633,0,0,2.60633,-160.143,-159.849)"><circle cx="99.812" cy="99.699" r="7.674" style="fill:#373737"/></g><g><text x="83.207" y="99.205" transform="matrix(1,0,0,1,-50,-50) matrix(1,0,0,1,300,-5.68434e-14) matrix(0.713569,0,0,0.574559,28.7166,53.2827)" style="font-family:'Arial-BoldMT','Arial',sans-serif;font-weight:700;font-size:50px;fill:#feff00">E</text></g></g><g><g transform="matrix(1,0,0,1,-50,-50) matrix(1,0,0,1,300,200) matrix(2.60633,0,0,2.60633,-160.143,-159.849)"><circle cx="99.812" cy="99.699" r="7.674" style="fill:#373737"/></g><g><text x="84.611" y="99.205" transform="matrix(1,0,0,1,-50,-50) matrix(1,0,0,1,300,200) matrix(0.713569,0,0,0.574559,28.7166,53.2827)" style="font-family:'Arial-BoldMT','Arial',sans-serif;font-weight:700;font-size:50px;fill:#feff00">F</text></g></g></g></svg>