<svg xmlns="http://www.w3.org/2000/svg" xmlns:xlink="http://www.w3.org/1999/xlink" width="100%" height="100%" version="1.1" viewBox="0 0 300 200" xml:space="preserve" style="fill-rule:evenodd;clip-rule:evenodd;stroke-linecap:round;stroke-linejoin:round;stroke-miterlimit:1.5"><g><path d="M10,0L10,200" style="fill:none;stroke:#afafaf;stroke-width:.21px"/><g><path d="M10,0L10,200" transform="matrix(1,0,0,1,10,0)" style="fill:none;stroke:#afafaf;stroke-width:.21px"/></g><g><path d="M10,0L10,200" transform="matrix(1,0,0,1,20,0)" style="fill:none;stroke:#afafaf;stroke-width:.21px"/></g><g><path d="M10,0L10,200" transform="matrix(1,0,0,1,30,0)" style="fill:none;stroke:#afafaf;stroke-width:.21px"/></g><g><path d="M10,0L10,200" transform="matrix(1,0,0,1,40,0)" style="fill:none;stroke:#afafaf;stroke-width:.21px"/></g><g><path d="M10,0L10,200" transform="matrix(1,0,0,1,50,0)" style="fill:none;stroke:#afafaf;stroke-width:.21px"/></g><g><path d="M10,0L10,200" transform="matrix(1,0,0,1,60,0)" style="fill:none;stroke:#afafaf;stroke-width:.21px"/></g><g><path d="M10,0L10,200" transform="matrix(1,0,0,1,70,0)" style="fill:none;stroke:#afafaf;stroke-width:.21px"/></g><g><path d="M10,0L10,200" transform="matrix(1,0,0,1,80,0)" style="fill:none;stroke:#afafaf;stroke-width:.21px"/></g><g><path d="M10,0L10,200" transform="matrix(1,0,0,1,90,0)" style="fill:none;stroke:#afafaf;stroke-width:.21px"/></g><g><path d="M10,0L10,200" transform="matrix(1,0,0,1,100,0)" style="fill:none;stroke:#afafaf;stroke-width:.21px"/></g><g><path d="M10,0L10,200" transform="matrix(1,0,0,1,110,0)" style="fill:none;stroke:#afafaf;stroke-width:.21px"/></g><g><path d="M10,0L10,200" transform="matrix(1,0,0,1,120,0)" style="fill:none;stroke:#afafaf;stroke-width:.21px"/></g><g><path d="M10,0L10,200" transform="matrix(1,0,0,1,130,0)" style="fill:none;stroke:#afafaf;stroke-width:.21px"/></g><g><path d="M10,0L10,200" transform="matrix(1,0,0,1,140,0)" style="fill:none;stroke:#afafaf;stroke-width:.21px"/></g><g><path d="M10,0L10,200" transform="matrix(1,0,0,1,150,0)" style="fill:none;stroke:#afafaf;stroke-width:.21px"/></g><g><path d="M10,0L10,200" transform="matrix(1,0,0,1,160,0)" style="fill:none;stroke:#afafaf;stroke-width:.21px"/></g><g><path d="M10,0L10,200" transform="matrix(1,0,0,1,170,0)" style="fill:none;stroke:#afafaf;stroke-width:.21px"/></g><g><path d="M10,0L10,200" transform="matrix(1,0,0,1,180,0)" style="fill:none;stroke:#afafaf;stroke-width:.21px"/></g><g><path d="M10,0L10,200" transform="matrix(1,0,0,1,190,0)" style="fill:none;stroke:#afafaf;stroke-width:.21px"/></g><g><path d="M10,0L10,200" transform="matrix(1,0,0,1,200,0)" style="fill:none;stroke:#afafaf;stroke-width:.21px"/></g><g><path d="M10,0L10,200" transform="matrix(1,0,0,1,210,0)" style="fill:none;stroke:#afafaf;stroke-width:.21px"/></g><g><path d="M10,0L10,200" transform="matrix(1,0,0,1,220,0)" style="fill:none;stroke:#afafaf;stroke-width:.21px"/></g><g><path d="M10,0L10,200" transform="matrix(1,0,0,1,230,0)" style="fill:none;stroke:#afafaf;stroke-width:.21px"/></g><g><path d="M10,0L10,200" transform="matrix(1,0,0,1,240,0)" style="fill:none;stroke:#afafaf;stroke-width:.21px"/></g><g><path d="M10,0L10,200" transform="matrix(1,0,0,1,250,0)" style="fill:none;stroke:#afafaf;stroke-width:.21px"/></g><g><path d="M10,0L10,200" transform="matrix(1,0,0,1,260,0)" style="fill:none;stroke:#afafaf;stroke-width:.21px"/></g><g><path d="M10,0L10,200" transform="matrix(1,0,0,1,270,0)" style="fill:none;stroke:#afafaf;stroke-width:.21px"/></g><g><path d="M10,0L10,200" transform="matrix(1,0,0,1,280,0)" style="fill:none;stroke:#afafaf;stroke-width:.21px"/></g></g><g><path d="M25,50L25,150" style="fill:none;stroke:#000;stroke-width:1px"/><path d="M0,190L300,190" style="fill:none;stroke:#afafaf;stroke-width:.21px"/><g><path d="M0,190L300,190" transform="matrix(1,0,0,1,0,-10)" style="fill:none;stroke:#afafaf;stroke-width:.21px"/></g><g><path d="M0,190L300,190" transform="matrix(1,0,0,1,0,-20)" style="fill:none;stroke:#afafaf;stroke-width:.21px"/></g><g><path d="M0,190L300,190" transform="matrix(1,0,0,1,0,-30)" style="fill:none;stroke:#afafaf;stroke-width:.21px"/></g><g><path d="M0,190L300,190" transform="matrix(1,0,0,1,0,-40)" style="fill:none;stroke:#afafaf;stroke-width:.21px"/></g><g><path d="M0,190L300,190" transform="matrix(1,0,0,1,0,-50)" style="fill:none;stroke:#afafaf;stroke-width:.21px"/></g><g><path d="M0,190L300,190" transform="matrix(1,0,0,1,0,-60)" style="fill:none;stroke:#afafaf;stroke-width:.21px"/></g><g><path d="M0,190L300,190" transform="matrix(1,0,0,1,0,-70)" style="fill:none;stroke:#afafaf;stroke-width:.21px"/></g><g><path d="M0,190L300,190" transform="matrix(1,0,0,1,0,-80)" style="fill:none;stroke:#afafaf;stroke-width:.21px"/></g><g><path d="M0,190L300,190" transform="matrix(1,0,0,1,0,-90)" style="fill:none;stroke:#afafaf;stroke-width:.21px"/></g><g><path d="M0,190L300,190" transform="matrix(1,0,0,1,0,-100)" style="fill:none;stroke:#afafaf;stroke-width:.21px"/></g><g><path d="M0,190L300,190" transform="matrix(1,0,0,1,0,-110)" style="fill:none;stroke:#afafaf;stroke-width:.21px"/></g><g><path d="M0,190L300,190" transform="matrix(1,0,0,1,0,-120)" style="fill:none;stroke:#afafaf;stroke-width:.21px"/></g><g><path d="M0,190L300,190" transform="matrix(1,0,0,1,0,-130)" style="fill:none;stroke:#afafaf;stroke-width:.21px"/></g><g><path d="M0,190L300,190" transform="matrix(1,0,0,1,0,-140)" style="fill:none;stroke:#afafaf;stroke-width:.21px"/></g><g><path d="M0,190L300,190" transform="matrix(1,0,0,1,0,-150)" style="fill:none;stroke:#afafaf;stroke-width:.21px"/></g><g><path d="M0,190L300,190" transform="matrix(1,0,0,1,0,-160)" style="fill:none;stroke:#afafaf;stroke-width:.21px"/></g><g><path d="M0,190L300,190" transform="matrix(1,0,0,1,0,-170)" style="fill:none;stroke:#afafaf;stroke-width:.21px"/></g><g><path d="M0,190L300,190" transform="matrix(1,0,0,1,0,-180)" style="fill:none;stroke:#afafaf;stroke-width:.21px"/></g><g><path d="M25,50L25,150" transform="matrix(1,0,0,1,65,0)" style="fill:none;stroke:#000;stroke-width:1px"/></g><g><path d="M25,50L25,150" transform="matrix(1,0,0,1,100,0)" style="fill:none;stroke:#000;stroke-width:1px"/></g><g><path d="M25,50L25,150" transform="matrix(1,0,0,1,160,0)" style="fill:none;stroke:#000;stroke-width:1px"/></g><g><path d="M25,50L25,150" transform="matrix(1,0,0,1,200,1.42109e-14)" style="fill:none;stroke:#000;stroke-width:1px"/></g></g><g><text x="27.751" y="42.426" transform="matrix(1,0,0,1,-7.32409,122)" style="font-family:'ArialMT','Arial',sans-serif;font-size:8.333px">25</text></g><g><text x="27.751" y="42.426" transform="matrix(1,0,0,1,57.6759,122)" style="font-family:'ArialMT','Arial',sans-serif;font-size:8.333px">90</text></g><g><text x="25.434" y="42.426" transform="matrix(1,0,0,1,92.6759,122)" style="font-family:'ArialMT','Arial',sans-serif;font-size:8.333px">125</text></g><g><text x="25.434" y="42.426" transform="matrix(1,0,0,1,152.676,122)" style="font-family:'ArialMT','Arial',sans-serif;font-size:8.333px">185</text></g><g><text x="25.434" y="42.426" transform="matrix(1,0,0,1,192.676,122)" style="font-family:'ArialMT','Arial',sans-serif;font-size:8.333px">225</text></g><g transform="matrix(1,0,0,1,-1,0)"><circle cx="101" cy="100" r="4" style="fill:#fc0000"/></g><g transform="matrix(1,0,0,1,99,0)"><circle cx="101" cy="100" r="4" style="fill:#00b50a"/></g><g><text x="-.317" y="149.456" transform="matrix(1,0,0,1,6,3.48824)" style="font-family:'ArialMT','Arial',sans-serif;font-size:8.333px">50</text></g><g><text x="-2.634" y="149.456" transform="matrix(1,0,0,1,6,-96.5118)" style="font-family:'ArialMT','Arial',sans-serif;font-size:8.333px">150</text></g></svg>