<svg xmlns="http://www.w3.org/2000/svg" xmlns:xlink="http://www.w3.org/1999/xlink" width="100%" height="100%" version="1.1" viewBox="0 0 400 300" xml:space="preserve" style="fill-rule:evenodd;clip-rule:evenodd;stroke-linecap:round;stroke-linejoin:round;stroke-miterlimit:1.41421"><rect width="400" height="300" x="0" y="0" style="fill:#ffe9c5;stroke-width:1px;stroke:#d2d2d2"/><g><g transform="matrix(0.7,0,0,0.7,150,84) matrix(1,0,0,1.2,0,-40)"><rect width="200" height="100" x="100" y="100" style="fill:#7adb03"/></g><g><path d="M200,110L208.981,137.639L238.042,137.639L214.531,154.721L223.511,182.361L200,165.279L176.489,182.361L185.469,154.721L161.958,137.639L191.019,137.639L200,110Z" transform="matrix(0.7,0,0,0.7,150,84) matrix(1.2105,0,0,1.2105,-42.1,-40.7476)" style="fill:#d440d2"/></g></g><g><path d="M20,140L380,140" style="fill:#000;stroke-width:1px;stroke:#000"/><path d="M20,140L380,140" style="fill:#000;stroke-width:1px;stroke:#000"/><g><path d="M102.871,80L105.742,90L100,90L102.871,80Z" transform="matrix(-1.60812e-16,-1,1,-1.60812e-16,-70,242.871)" style="fill:#000;stroke-width:1px;stroke:#000"/></g><g><path d="M102.871,80L105.742,90L100,90L102.871,80Z" transform="matrix(2.83277e-16,1,-1,2.83277e-16,470,37.1289)" style="fill:#000;stroke-width:1px;stroke:#000"/></g></g><g><g><path d="M102.871,80L105.742,90L100,90L102.871,80Z" transform="matrix(1,0,0,1,60,0) matrix(1,0,0,1,57.1289,-70)" style="fill:#000;stroke-width:1px;stroke:#000"/></g><g><path d="M102.871,80L105.742,90L100,90L102.871,80Z" transform="matrix(1,0,0,1,60,0) matrix(-1,3.21625e-16,-3.21625e-16,-1,262.871,370)" style="fill:#000;stroke-width:1px;stroke:#000"/></g><path d="M160,20L160,280" transform="matrix(1,0,0,1,60,0)" style="fill:#000;stroke-width:1px;stroke:#000"/></g><g><text x="226.268" y="148.148" transform="matrix(1,0,0,1,-82.1517,-15.8931)" style="font-family:'Courier';font-size:12px;fill:#000">(210, 150)</text></g></svg>