<svg xmlns="http://www.w3.org/2000/svg" xmlns:xlink="http://www.w3.org/1999/xlink" width="100%" height="100%" version="1.1" viewBox="0 0 400 300" xml:space="preserve" style="fill-rule:evenodd;clip-rule:evenodd;stroke-linecap:round;stroke-linejoin:round;stroke-miterlimit:1.5"><g><g><path d="M326.796,140L353.592,196.16L300,196.16L326.796,140Z" transform="matrix(9.14052e-17,1.49276,-0.890318,5.45162e-17,474.644,-337.828)" style="fill:#71bea0"/></g><g transform="matrix(1,0,0,1,0,-10)"><rect width="46.306" height="80" x="340" y="120" style="fill:#71bea0"/></g></g><rect width="10" height="260" x="20" y="20" style="fill:#a971be"/><path d="M48.739,33.608L40,26.895L51.019,27.022L48.739,33.608Z"/><path d="M280,110C280,110 89.378,43.993 47.903,29.631" style="fill:none;stroke:#000;stroke-width:1px"/><g><g><path d="M50.454,153.485L40,150L50.454,146.515L50.454,153.485Z" transform="matrix(1,0,0,1,-2.84217e-14,40) matrix(1,-0,-0,1,2.84217e-14,-40)"/><path d="M280,150L48.364,150" transform="matrix(1,0,0,1,-2.84217e-14,40) matrix(1,-0,-0,1,2.84217e-14,-40)" style="fill:none;stroke:#000;stroke-width:1px"/></g></g><g><g><path d="M49.455,85.661L40,80L50.96,78.856L49.455,85.661Z" transform="matrix(1,0,0,1,0,23.1054) matrix(1,-0,-0,1,0,-23.1054)"/><path d="M280,133.105C280,133.105 90.177,91.103 48.166,81.807" transform="matrix(1,0,0,1,0,23.1054) matrix(1,-0,-0,1,0,-23.1054)" style="fill:none;stroke:#000;stroke-width:1px"/></g></g><g><g><path d="M50.945,221.279L40,220L49.524,214.456L50.945,221.279Z" transform="matrix(1,0,0,1,0,60) matrix(1,-0,-0,1,0,-60)"/><path d="M280,170C280,170 90.242,209.533 48.188,218.294" transform="matrix(1,0,0,1,0,60) matrix(1,-0,-0,1,0,-60)" style="fill:none;stroke:#000;stroke-width:1px"/></g></g><g><g><path d="M51.018,274.888L40,275.097L48.689,268.319L51.018,274.888Z" transform="matrix(1,0,0,-1.08296,0,309.126) matrix(1,0,0,-0.923393,-0,285.445)"/><path d="M280,190C280,190 89.315,257.611 47.883,272.302" transform="matrix(1,0,0,-1.08296,0,309.126) matrix(1,0,0,-0.923393,-0,285.445)" style="fill:none;stroke:#000;stroke-width:1px"/></g></g><text x="117.083" y="279.849" style="font-family:'ArialMT','Arial',sans-serif;font-size:20.833px">perspective projection</text></svg>