<svg xmlns="http://www.w3.org/2000/svg" xmlns:svg="http://www.w3.org/2000/svg" xmlns:xlink="http://www.w3.org/1999/xlink" id="svg2" width="1343.972" height="703.972" version="1.1"><defs id="defs4"><clipPath id="clipPath3924" clipPathUnits="userSpaceOnUse"><rect style="fill:#599e8e;fill-opacity:.52086642;fill-rule:nonzero" id="rect3926" width="217.004" height="448.008" x="-255.915" y="344.543"/></clipPath></defs><metadata id="metadata7"/><g id="layer3" transform="translate(521.98583,-210.37636)" style="display:inline"><rect style="fill:#87cdde;display:inline" id="rect3767" width="1340" height="360" x="-520" y="212.362"/><rect style="fill:#a05a2c;display:inline" id="rect3765" width="1340" height="340" x="-520" y="572.362"/></g><g id="layer1" transform="translate(521.98583,-210.37636)" style="display:inline"><rect style="fill:none;stroke:#000;stroke-width:1.97165108px;stroke-linecap:butt;stroke-linejoin:miter;stroke-opacity:1" id="rect2985" width="1340" height="700" x="-520" y="212.362"/><path style="fill:#999;stroke:#000;stroke-width:1px;stroke-linecap:butt;stroke-linejoin:miter;stroke-opacity:1" id="path3759" d="m -520,912.36218 880,-340 460,340 z"/><path style="fill:#fff;stroke:#000;stroke-width:1px;stroke-linecap:butt;stroke-linejoin:miter;stroke-opacity:1" id="path3761" d="m 360,572.36218 -240,340 40,0 z"/></g><g id="layer4" transform="translate(521.98583,-210.37636)" style="display:none"><path style="fill:none;stroke:#000;stroke-width:1px;stroke-linecap:butt;stroke-linejoin:miter;stroke-opacity:1;display:inline" id="path3763" d="m -520,212.36218 880,360 460,-360 z"/></g><g id="layer2" transform="translate(521.98583,-210.37636)"><g id="use3826" transform="matrix(0.15384615,0,0,0.15384615,306.4366,484.46293)"><rect style="fill:#502d16" id="rect3844" width="40" height="60" x="-20" y="632.362"/><path style="fill:#050;stroke:#000;stroke-width:1px;stroke-linecap:butt;stroke-linejoin:miter;stroke-opacity:1" id="path3846" d="m -80,632.36218 160,0 -80,-200 -80,200 z"/></g><g id="use3828" transform="matrix(0.24900412,0,0,0.24900412,274.74089,429.96115)"><rect style="fill:#502d16" id="rect3850" width="40" height="60" x="-20" y="632.362"/><path style="fill:#050;stroke:#000;stroke-width:1px;stroke-linecap:butt;stroke-linejoin:miter;stroke-opacity:1" id="path3852" d="m -80,632.36218 160,0 -80,-200 -80,200 z"/></g><g id="use3830" transform="matrix(0.36207247,0,0,0.36207247,234.2103,365.67689)"><rect style="fill:#502d16" id="rect3856" width="40" height="60" x="-20" y="632.362"/><path style="fill:#050;stroke:#000;stroke-width:1px;stroke-linecap:butt;stroke-linejoin:miter;stroke-opacity:1" id="path3858" d="m -80,632.36218 160,0 -80,-200 -80,200 z"/></g><g id="use3832" transform="matrix(0.51277916,0,0,0.51277916,180.64985,280.19044)"><rect style="fill:#502d16" id="rect3862" width="40" height="60" x="-20" y="632.362"/><path style="fill:#050;stroke:#000;stroke-width:1px;stroke-linecap:butt;stroke-linejoin:miter;stroke-opacity:1" id="path3864" d="m -80,632.36218 160,0 -80,-200 -80,200 z"/></g><g id="use3834" transform="matrix(0.76073247,0,0,0.76073247,101.70139,138.51694)"><rect style="fill:#502d16" id="rect3868" width="40" height="60" x="-20" y="632.362"/><path style="fill:#050;stroke:#000;stroke-width:1px;stroke-linecap:butt;stroke-linejoin:miter;stroke-opacity:1" id="path3870" d="m -80,632.36218 160,0 -80,-200 -80,200 z"/></g><g id="use3836" transform="matrix(1.070491,0,0,1.070491,-5.674542,-39.013823)"><rect style="fill:#502d16" id="rect3874" width="40" height="60" x="-20" y="632.362"/><path style="fill:#050;stroke:#000;stroke-width:1px;stroke-linecap:butt;stroke-linejoin:miter;stroke-opacity:1" id="path3876" d="m -80,632.36218 160,0 -80,-200 -80,200 z"/></g><g id="use3838" transform="matrix(1.5483959,0,0,1.5483959,-166.19964,-308.26002)"><rect style="fill:#502d16" id="rect3880" width="40" height="60" x="-20" y="632.362"/><path style="fill:#050;stroke:#000;stroke-width:1px;stroke-linecap:butt;stroke-linejoin:miter;stroke-opacity:1" id="path3882" d="m -80,632.36218 160,0 -80,-200 -80,200 z"/></g><use id="use3840" width="744.094" height="1052.362" x="0" y="0" clip-path="url(#clipPath3924)" transform="matrix(1.4285461,0,0,1.4285461,-155.35928,-248.74815)" xlink:href="#use3838"/><use id="use3889" width="744.094" height="1052.362" x="0" y="0" transform="matrix(0.6542166,0,0,0.6542166,125.20017,197.94509)" xlink:href="#use3826"/><use id="use3891" width="744.094" height="1052.362" x="0" y="0" transform="matrix(0.57868966,0,0,0.57868966,150.65139,241.20211)" xlink:href="#use3889"/><use id="use3893" width="744.094" height="1052.362" x="0" y="0" transform="matrix(0.56928656,0,0,0.56928656,154.62814,246.26571)" xlink:href="#use3891"/><use id="use3895" width="744.094" height="1052.362" x="0" y="0" transform="matrix(0.52599527,0,0,0.52599527,170.44595,271.37403)" xlink:href="#use3893"/></g></svg>