<svg xmlns="http://www.w3.org/2000/svg" xmlns:xlink="http://www.w3.org/1999/xlink" width="100%" height="100%" version="1.1" viewBox="0 0 400 300" xml:space="preserve" style="fill-rule:evenodd;clip-rule:evenodd;stroke-linecap:round;stroke-linejoin:round;stroke-miterlimit:1.5"><g transform="matrix(1,0,0,1,-20,-77.3744)"><rect width="300" height="200" x="100" y="100" style="fill:#929292"/></g><g><text x="271.795" y="126.497" transform="matrix(0.435292,0,0,0.435292,183.569,-12.4378)" style="font-family:'ArialMT','Arial',sans-serif;font-size:50px">canvas</text></g><g transform="matrix(1,0,0,1,-20,-77.3744)"><rect width="100" height="100" x="40" y="150" style="fill:#ff2121;fill-opacity:.69"/></g><g><g><path d="M71.757,160.018L67.564,137.626L57.483,158.055L71.757,160.018Z" transform="matrix(1,0,0,1,-17.5644,-82.3744) matrix(1,-0,-0,1,17.5644,82.3744)"/><path d="M65.209,154.754C60.956,185.672 52.436,247.626 52.436,247.626" transform="matrix(1,0,0,1,-17.5644,-82.3744) matrix(1,-0,-0,1,17.5644,82.3744)" style="fill:none;stroke:#000;stroke-width:3.33px"/></g></g><g><text x="271.795" y="126.497" transform="matrix(0.297736,0,0,0.297736,-47.7922,51.8335)" style="font-family:'ArialMT','Arial',sans-serif;font-size:50px">32x32 point</text></g><g transform="matrix(1,0,0,1,-20,-77.3744)"><circle cx="90" cy="200" r="4.871"/></g><g><text x="52.412" y="337.371" transform="matrix(0.405444,0,0,0.405444,-2.04211,132.977)" style="font-family:'ArialMT','Arial',sans-serif;font-size:50px">center outside canvas</text></g></svg>