<svg xmlns="http://www.w3.org/2000/svg" xmlns:xlink="http://www.w3.org/1999/xlink" width="100%" height="100%" version="1.1" viewBox="0 0 500 100" xml:space="preserve" style="fill-rule:evenodd;clip-rule:evenodd;stroke-linecap:round;stroke-linejoin:round;stroke-miterlimit:1.5"><g><g><path d="M102.068,134.707L102.068,85.917" transform="matrix(0.707107,0.707107,-0.707107,0.707107,243.844,-272.976) matrix(1,0,0,1,118.275,137.209)" style="fill:#0bba1f;stroke:#0bba1e;stroke-width:1px"/></g><g><path d="M88.992,85.917L94.548,102.433L83.436,102.433L88.992,85.917Z" transform="matrix(0.707107,0.707107,-0.707107,0.707107,243.844,-272.976) matrix(1,0,0,1.00047,131.351,128.906)" style="fill:#0bba1f;stroke:#0bba1e;stroke-width:1px"/></g></g><g><g><path d="M102.068,134.707L102.068,85.917" transform="matrix(-1,-1.22465e-16,1.22465e-16,-1,363.532,298.323) matrix(1,0,0,1,118.275,137.209)" style="fill:#000901;stroke:#000c01;stroke-width:1px"/></g><g><path d="M88.992,85.917L94.548,102.433L83.436,102.433L88.992,85.917Z" transform="matrix(-1,-1.22465e-16,1.22465e-16,-1,363.532,298.323) matrix(1,0,0,1.00047,131.351,128.906)" style="fill:#000901;stroke:#000c01;stroke-width:1px"/></g></g><g><text x="188.797" y="244.045" transform="matrix(0.557512,0,0,0.591172,56.2374,-80.1832)" style="font-family:'ArialMT','Arial',sans-serif;font-size:50px">dot</text></g><g><text x="209.504" y="251.484" transform="matrix(1,0,0,1,44.8289,-186.1)" style="font-family:'ArialMT','Arial',sans-serif;font-size:29.583px">= -0.707</text></g></svg>