<svg xmlns="http://www.w3.org/2000/svg" xmlns:xlink="http://www.w3.org/1999/xlink" width="100%" height="100%" version="1.1" viewBox="0 0 500 100" xml:space="preserve" style="fill-rule:evenodd;clip-rule:evenodd;stroke-linecap:round;stroke-linejoin:round;stroke-miterlimit:1.5"><g><text x="255.555" y="251.484" transform="matrix(1,0,0,1,-17.5105,-190.768)" style="font-family:'ArialMT','Arial',sans-serif;font-size:29.583px">=</text></g><g><g><path d="M102.068,134.707L102.068,85.917" transform="matrix(0.707107,0.707107,-0.707107,0.707107,203.772,-257.389) matrix(1,0,0,0.707106,118.275,162.374)" style="fill:#0bba1f;stroke:#0bba1e;stroke-width:1.15px"/></g><g><path d="M88.992,85.917L94.548,102.433L83.436,102.433L88.992,85.917Z" transform="matrix(0.707107,0.707107,-0.707107,0.707107,203.772,-257.389) matrix(1,0,0,1.00047,131.351,128.906)" style="fill:#0bba1f;stroke:#0bba1e;stroke-width:1px"/></g></g><g><g><path d="M102.068,134.707L102.068,85.917" transform="matrix(0.707107,0.707107,-0.707107,0.707107,229.587,-283.282) matrix(1,0,0,0.707106,118.275,162.374)" style="fill:#0bba1f;stroke:#0bba1e;stroke-width:1.15px"/></g><g><path d="M88.992,85.917L94.548,102.433L83.436,102.433L88.992,85.917Z" transform="matrix(0.707107,0.707107,-0.707107,0.707107,229.587,-283.282) matrix(1,0,0,1.00047,131.351,128.906)" style="fill:#0bba1f;stroke:#0bba1e;stroke-width:1px"/></g></g><g><g><path d="M102.068,134.707L102.068,85.917" transform="matrix(6.12323e-17,1,-1,6.12323e-17,543.011,-169.994) matrix(1,0,0,1,118.275,137.209)" style="fill:#ff0012;stroke:#ff0012;stroke-width:1px"/></g><g><path d="M88.992,85.917L94.548,102.433L83.436,102.433L88.992,85.917Z" transform="matrix(6.12323e-17,1,-1,6.12323e-17,543.011,-169.994) matrix(1,0,0,1.00047,131.351,128.906)" style="fill:#ff0012;stroke:#ff0012;stroke-width:1px"/></g></g><g><g><path d="M102.068,134.707L102.068,85.917" transform="matrix(6.12323e-17,1,-1,6.12323e-17,449.326,-196.888) matrix(1,0,0,1,118.275,137.209)" style="fill:#ff828b;stroke:#ff7983;stroke-width:1px;stroke-dasharray:5,5,0,0"/></g><g><path d="M88.992,85.917L94.548,102.433L83.436,102.433L88.992,85.917Z" transform="matrix(6.12323e-17,1,-1,6.12323e-17,449.326,-196.888) matrix(0.532955,6.16298e-33,6.16589e-33,0.533208,172.914,169.053)" style="fill:#ff7983"/></g></g><g><g><path d="M102.068,134.707L102.068,85.917" transform="matrix(-1,-1.22465e-16,1.22465e-16,-1,397.752,295.45) matrix(1,0,0,1,118.275,137.209)" style="fill:#000901;stroke:#000c01;stroke-width:1px"/></g><g><path d="M88.992,85.917L94.548,102.433L83.436,102.433L88.992,85.917Z" transform="matrix(-1,-1.22465e-16,1.22465e-16,-1,397.752,295.45) matrix(1,0,0,1.00047,131.351,128.906)" style="fill:#000901;stroke:#000c01;stroke-width:1px"/></g></g></svg>