<svg xmlns="http://www.w3.org/2000/svg" xmlns:xlink="http://www.w3.org/1999/xlink" width="100%" height="100%" version="1.1" viewBox="0 0 500 500" xml:space="preserve" style="fill-rule:evenodd;clip-rule:evenodd;stroke-linecap:round;stroke-linejoin:round;stroke-miterlimit:1.5"><g transform="matrix(0.707107,-0.707107,0.707107,0.707107,-76.0187,266.875)"><rect width="246.213" height="246.213" x="119.356" y="95.491" style="fill:#fff;stroke:#000;stroke-width:1px"/></g><g transform="matrix(1,0,0,0.670632,1.1979,82.3421)"><rect width="22.782" height="34.953" x="237.411" y="250"/></g><g><path d="M-31.37,208.616L-22.415,234.127L-40.325,234.127L-31.37,208.616Z" transform="matrix(-1,-1.22465e-16,1.22465e-16,-1,218.63,470.337)"/></g><path d="M323.791,75.901L176.209,75.901L238.609,195.276L261.391,195.475L323.791,75.901Z" style="fill:#3679ca;fill-opacity:.501961;stroke:#307fb4;stroke-width:1px"/><g><path d="M82.983,157.216L90.065,177.014L75.901,177.014L82.983,157.216Z" transform="matrix(-0.258819,0.965926,-0.965926,-0.258819,295.673,154.293)"/><path d="M82.983,167.115L82.983,215.747" transform="matrix(-0.258819,0.965926,-0.965926,-0.258819,295.673,154.293)" style="stroke:#000;stroke-width:1px"/></g><g><path d="M82.983,157.216L90.065,177.014L75.901,177.014L82.983,157.216Z" transform="matrix(-0.258819,0.965926,-0.965926,-0.258819,365.187,44.6403)"/><path d="M82.983,167.115L82.983,215.747" transform="matrix(-0.258819,0.965926,-0.965926,-0.258819,365.187,44.6403)" style="stroke:#000;stroke-width:1px"/></g><g><path d="M82.983,157.216L90.065,177.014L75.901,177.014L82.983,157.216Z" transform="matrix(-0.419878,-0.907581,0.907581,-0.419878,223.601,214.226)"/><path d="M82.983,167.115L82.983,215.747" transform="matrix(-0.419878,-0.907581,0.907581,-0.419878,223.601,214.226)" style="stroke:#000;stroke-width:1px"/></g><g><path d="M82.983,157.216L90.065,177.014L75.901,177.014L82.983,157.216Z" transform="matrix(0.222734,-0.974879,0.974879,0.222734,131.165,168.532)" style="fill:#ff0808"/><path d="M82.983,167.115L82.983,215.747" transform="matrix(0.222734,-0.974879,0.974879,0.222734,131.165,168.532)" style="fill:#fc0101;stroke:#f80000;stroke-width:1px"/></g><g><path d="M82.983,157.216L90.065,177.014L75.901,177.014L82.983,157.216Z" transform="matrix(0.439433,-0.898276,0.924003,0.452018,76.2542,82.3778)" style="fill:#ff0808"/><g><path d="M82.983,167.115L82.983,215.747" transform="matrix(0.439433,-0.898276,0.924003,0.452018,76.2542,82.3778) matrix(1,-1.11022e-16,0,2.09033,6.39488e-14,-182.211)" style="fill:#fc0101;stroke:#f80000;stroke-width:.6px"/></g></g><g><text x="46.138" y="165.522" transform="matrix(0.470738,0,0,0.470738,7.17831,39.4109)" style="font-family:'ArialMT','Arial',sans-serif;font-size:50px">skybox</text><text x="64.18" y="217.158" transform="matrix(0.470738,0,0,0.470738,7.17831,39.4109)" style="font-family:'ArialMT','Arial',sans-serif;font-size:50px">using</text><text x="19.734" y="268.794" transform="matrix(0.470738,0,0,0.470738,7.17831,39.4109)" style="font-family:'ArialMT','Arial',sans-serif;font-size:50px">geometry</text></g><g><text x="19.734" y="165.522" transform="matrix(0.470738,0,0,0.470738,356.765,-36.2754)" style="font-family:'ArialMT','Arial',sans-serif;font-size:50px">frustum</text></g><g><text x="19.734" y="165.522" transform="matrix(0.470738,0,0,0.470738,27.5633,-21.467)" style="font-family:'ArialMT','Arial',sans-serif;font-size:50px">some object</text></g><g><text x="19.734" y="165.522" transform="matrix(0.470738,0,0,0.470738,356.524,62.5294)" style="font-family:'ArialMT','Arial',sans-serif;font-size:50px;fill:#ea0000">dif<tspan x="71.639 85.53" y="165.522 165.522">fe</tspan>rent</text><text x="19.734" y="217.158" transform="matrix(0.470738,0,0,0.470738,356.524,62.5294)" style="font-family:'ArialMT','Arial',sans-serif;font-size:50px;fill:#ea0000">z values</text></g><g><path d="M215.629,92.724L226.585,100.684L222.4,113.564L208.858,113.564L204.673,100.684L215.629,92.724Z" transform="matrix(1,0,0,1,-9.55027,-13.0834)" style="fill:#18ff52;stroke:#121212;stroke-width:1px"/></g></svg>